<?xml version="1.0" encoding="utf-8"?>
<!-- Generator: Adobe Illustrator 23.0.5, SVG Export Plug-In . SVG Version: 6.00 Build 0)  -->
<svg version="1.1" id="Capa_1" xmlns="http://www.w3.org/2000/svg" xmlns:xlink="http://www.w3.org/1999/xlink" x="0px" y="0px"
	 viewBox="0 0 1008 624.3" style="enable-background:new 0 0 1008 624.3;" xml:space="preserve">
<style type="text/css">
	.st0{fill:#211915;}
	.st1{fill:#FFFFFF;}
	.st2{fill:#EF3D25;}
	.st3{fill:#207EB3;}
	.st4{fill:#F26A25;}
	.st5{fill:#2794D0;}
</style>
<g>
	<path class="st0" d="M956.3,509.1c11.3-13.3,23.2-34.8,22.9-65.8c-0.2-23.1-7.8-50.3-26.4-71.2c26.8-13.9,45.2-41.8,45.2-74
		c0-22.7-9.1-44-25.2-59.6L956.7,57.6c-1.5-16.8-9.5-32-22.4-42.9c-13-10.8-29.3-16-46.1-14.4c-34.7,3.1-60.4,33.8-57.3,68.5l1,11
		c-8.3-10-20.8-16.4-34.8-16.4h-62.3c-14.2,0-26.8,6.5-35.2,16.8c-8.5-10.5-21.5-16.8-35.2-16.8h-70.6c-15.3,0-28.9,7.6-37.1,19.3
		C528.3,66,492.4,57.8,456.6,60.4c-30.6,2.2-57.9,11.4-80.6,27c-2.4-4-5.5-7.7-9.2-10.9c-9.1-7.9-20.8-11.8-32.9-10.9l-66.6,4.8
		c-6.1,0.4-11.9,2.1-17.1,4.7c-22.1-9.5-48.1-14.4-75.6-14.4c-61.7,0-108.4,25.4-128.2,69.8c-6.5,14.2-10,30.1-10,45.8
		c0,22.2,6.2,42.5,18,59.4l-14.8,9.5c-10.9,7-18.2,18.3-20.2,31s1.5,25.8,9.7,35.8c5.6,6.8,14.3,17.4,27.7,28h-1.5
		c-25,0-45.3,20.3-45.3,45.3v189.6c0,25,20.3,45.3,45.3,45.3h59.9c25,0,45.3-20.3,45.3-45.3v-27.5h16.2l1.9,34
		c1.3,24,21.1,42.8,45.2,42.8l0,0c0.9,0,1.7,0,2.5-0.1l158-8.6c10.6-0.6,20.5-4.8,28.2-11.9c8.4,10.2,21.2,16.4,35,16.4
		c0.1,0,0.2,0,0.2,0l62.6-0.6c17.1-0.2,32.4-9.9,40-24.8c6.4,17.4,23.1,29.7,42.5,29.7l0,0c0.9,0,1.9,0,2.8-0.1l145.3-9.1
		c6.3,3.2,13.3,4.9,20.7,4.9c0.1,0,0.2,0,0.3,0l60.2-0.6c10-0.1,19.4-3.4,27.2-9.4c7.7,5.7,17.1,8.9,27.1,8.9c0.1,0,0.2,0,0.3,0
		l66.6-0.7c16.3-0.2,31.3-9.1,39.2-23.4c7.9-14.3,7.5-31.8-1.1-45.6L956.3,509.1z"/>
	<path class="st1" d="M797,89.7h-62.3c-10.5,0-19,8.5-19,19v49.2l-35-58.9c-3.4-5.7-9.6-9.2-16.3-9.2h-70.6c-10.5,0-19,8.5-19,19
		v24.7c-3.9-5.5-9-11.2-15.8-16.9c-25-21.5-62.6-32.7-100.5-29.9c-38.4,2.8-70.3,18.5-92.3,45.3c-2.8,3.4-5.3,6.9-7.7,10.5
		l-2.4-33.1c-0.4-5-2.7-9.7-6.5-13s-8.8-4.9-13.8-4.6l-66.6,4.8c-5,0.4-9.7,2.7-13,6.5c-0.9,1-1.6,2.1-2.3,3.3
		c-2.3-1.4-4.8-2.7-7.5-4c-20.2-10.1-45-15.4-71.9-15.4c-50.9,0-88.9,19.8-104.2,54.3c-5,10.8-7.7,22.9-7.7,34.9
		c0,25.2,10.1,46.2,29.1,60.7c1.4,1.1,2.9,2.1,4.4,3.1l-42.3,27.2c-4.5,2.9-7.6,7.6-8.5,13s0.6,10.8,4.1,15
		c10,12.2,28.7,34.9,67.8,46.1c16.2,4.7,33.9,7,54.2,7c41.1,0,72.7-11,94-32.9c0.2-0.2,0.5-0.5,0.7-0.8l0.9,12
		c0.7,10,9,17.6,18.9,17.6c0.5,0,0.9,0,1.4,0l66.6-4.8c5-0.4,9.7-2.7,13-6.5s4.9-8.8,4.6-13.8l-0.6-8.5
		c20.2,21.6,43.2,30.4,50.5,32.7c11.6,3.9,24.1,5.8,37.3,5.8c3.3,0,6.6-0.1,10-0.4c22.1-1.6,38.4-7.4,50.3-13.7
		c3.5,2.5,7.8,3.8,12.3,3.4l49.6-3.6c0.8-0.1,1.6-0.2,2.4-0.3c3,2.1,6.7,3.3,10.6,3.3h62c10.5,0,19-8.5,19-19v-49.1l34.4,58.7
		c3.4,5.8,9.6,9.4,16.3,9.4H797c10.5,0,19-8.5,19-19V108.7C816,98.2,807.5,89.7,797,89.7z"/>
	<path class="st1" d="M958.6,562.9l-36-58.4c4.1-2.8,7.8-5.9,11.1-9.5c9-9.4,19.5-25.9,19.2-51.4c-0.3-25.8-12.2-58.2-45.1-71.8
		c-12.4-5-28.6-7.1-54.1-6.8l-94.5,0.9c-4.7,0-9,1.8-12.3,4.7c-3.5-5.8-10.1-9.6-17.4-9.1l-143.9,9c-3.6-3.5-8.4-5.5-13.5-5.5
		l-61.5,0.6c-8.4,0.1-15.8,5.7-18.1,13.8l-14.9,52.4l-16.2-52.3c-2.5-7.9-9.8-13.3-18.1-13.3c-0.1,0-0.1,0-0.2,0l-61.2,0.6
		c-1.9,0-3.7,0.3-5.5,0.9c-3.6-3.5-8.7-5.5-14.1-5.2l-145.2,7.9c-3.2-2.5-7.2-4-11.6-4H55.3c-10.5,0-19,8.5-19,19V575
		c0,10.5,8.5,19,19,19h59.9c10.5,0,18.9-8.5,18.9-19v-54h65.4c0.7,0,1.4,0,2.1-0.1l3.2,59c0.6,10.1,8.9,17.9,18.9,17.9
		c0.4,0,0.7,0,1.1,0l158-8.6c5-0.3,9.7-2.5,13.1-6.3c3.4-3.7,5.1-8.7,4.8-13.7l-2.2-41c0-0.9-0.2-1.7-0.3-2.6l-3.5-45.5l34.7,100.8
		c2.6,7.7,9.8,12.8,17.9,12.8c0.1,0,0.1,0,0.2,0l62.6-0.6c8.1-0.1,15.3-5.3,17.8-13l38.6-117.5l7.4,117.7c0.6,10,9,17.8,18.9,17.8
		c0.4,0,0.8,0,1.2,0l154.2-9.7c3.4,3.3,8.1,5.4,13.2,5.4c0.1,0,0.1,0,0.2,0l60.2-0.6c5,0,9.8-2.1,13.3-5.7s5.5-8.4,5.4-13.5
		l-0.2-25.3l19.3,34.3c3.4,6,9.7,9.7,16.5,9.7c0.1,0,0.1,0,0.2,0l66.6-0.7c6.8-0.1,13.1-3.8,16.4-9.8
		C962.4,576,962.2,568.7,958.6,562.9z"/>
	<path class="st1" d="M954.6,247.6L937.8,59.2c-2.2-24.3-23.7-42.3-48-40.1s-42.3,23.6-40.1,48l16.8,188.4
		c-10,11.3-16.1,26.2-16.1,42.6c0,35.5,28.8,64.3,64.3,64.3s64.3-28.8,64.3-64.3C979,277.6,969.5,259.4,954.6,247.6z"/>
</g>
<g>
	<polygon class="st2" points="337.2,110.8 270.6,115.6 278.4,222 285.9,325.4 352.4,320.6 345.3,222 	"/>
	<path class="st2" d="M797,108.7h-62.3v82.5c0.4,14.9,0.6,22.2,1.2,30.8h0.1c0.3,4.9,0.8,10.3,1.5,17.8c-3.3-7.2-5.9-12.9-8.2-17.8
		h-0.2c-5.2-11.1-9.3-18.8-17.3-33.8l-47.4-79.5h-70.6V222h0.1l-0.1,97h62v-85.2c-0.1-4.7-0.2-8.5-0.2-11.8h-0.1
		c-0.3-10.4-0.7-16.7-1.8-31.1c6.9,14.4,11.2,23.1,15.4,31.1h0.2c4,7.5,7.9,14.2,13.8,24.3l42.6,72.7H797v-97h-0.1L797,108.7z"/>
	<path class="st2" d="M261.4,222c-15.5-23.5-49.7-29.6-84.1-35.5c-18.2-3.3-28.9-6-28.9-16.1c0-10.7,12.5-13.7,23.8-13.7
		c10.7,0,26.8,1.8,39,7.8c9.2,4.8,12.8,9.5,16.1,13.7l41.7-34.9c-7.5-7.8-15.2-16.1-31-23.8c-17.3-8.6-39.3-13.4-63.5-13.4
		c-37.8,0-73.3,12.2-87,43.2c-3.9,8.3-6,17.9-6,27.1c0,22.4,9.6,36.5,21.6,45.6h0.2c11.8,9,26,13.2,35.6,15.7
		c8.6,2.1,47.4,8.9,54.8,11.6c11.6,3.9,11.6,11.6,11.6,13.1c0,15.2-26.2,15.8-31.6,15.8c-10.1,0-20.9-1.8-29.5-4.8
		c-18.2-6-23.2-13.7-29.2-22.9l-51,32.8c9.5,11.6,25,30.4,58.4,39.9c16.4,4.8,33.1,6.3,48.9,6.3c11.6,0,53.9,0,80.4-27.1
		c9.5-9.8,18.8-25.3,18.8-47.4c0-13.8-3.3-24.5-9-33H261.4z"/>
	<path class="st2" d="M572.5,221.9l-1.5-21.7l-96.3,7l1.1,14.8h0.1l1.9,27.4l38.9-2.8c-1,6.6-1.5,12.4-6.7,18.7
		c-9.6,11.5-24.7,13.1-30.7,13.6c-7.1,0.5-22.6,1.3-36.7-11.4c-15.5-13.7-18.2-33-19.1-45.6h-0.1c0.1-0.3,0-0.7,0-1.1
		c-0.7-9.5-2.5-34.5,12.7-50.8c6.1-6.7,16.6-13.5,32.4-14.6c14-1,25,3,31.7,8.8c7,6.1,9,13.1,11,19.5l58.2-21
		c-4.3-9.5-9.2-20.5-22.6-31.8c-22.3-19-55.5-27.6-87-25.4c-70.5,5.1-105.5,58.5-104,116.4h0.1c0.1,2.1,0.1,4.3,0.3,6.4
		c4.7,65.4,50.5,90.4,71,97c11,3.7,24.3,5.7,40.1,4.6c35.4-2.6,52.5-17,61.5-24.8l1.1,14.6l49.6-3.6l-6.8-94.2H572.5z"/>
</g>
<g>
	<g>
		<circle class="st2" cx="889.5" cy="97.8" r="12.1"/>
		<circle class="st2" cx="900.8" cy="71.2" r="10.6"/>
		<circle class="st2" cx="883.9" cy="50.5" r="6.3"/>
	</g>
	<path class="st2" d="M935.1,257.1l-3.7-35.9l-16.2,1l-1.2-13.7l15.8-3l-1.2-11.6l-16,1.2l-1.8-14.4l16.2-3l-1.3-12.3l-15.9,2.1
		l-2.1-14.8l16.4-3.1l-2.5-24.7l-47.7,4.6l13.7,132.3c-11.5,8.5-18.9,22.1-18.9,37.5c0,25.7,20.9,46.6,46.6,46.6
		s46.6-20.9,46.6-46.6C961.7,280.6,950.8,264.6,935.1,257.1z M915.6,325.8c-15.8,0-28.7-12.9-28.7-28.7c0-2.7,0.4-5.4,1.1-8l6.1,1.8
		c-0.6,2-0.9,4.1-0.9,6.3c0,12.3,10,22.4,22.4,22.4c0.5,0,1.1,0,1.6-0.1l0.5,6.3C916.9,325.8,916.3,325.8,915.6,325.8z"/>
</g>
<g>
	<polygon class="st3" points="55.3,490.4 55.3,574.8 115.2,574.8 115.2,502 199.5,502 199.5,490.4 199.5,461.2 115.2,461.2 
		115.2,427.1 205.4,427.1 205.4,385.2 55.3,385.2 	"/>
	<path class="st3" d="M487.5,466c-3,11.1-4.6,17.2-6,24.3l0.6,0.1h-0.7c-1,5.3-2,11.1-3.4,20.1c-1.3-8.5-2.2-14.4-3.4-20.1h0.1
		c-1.8-8.4-3.9-16.1-8.2-30.3l-23.2-75l-61.2,0.6l36.1,104.7h-0.1l29,84.3l62.6-0.6l27.5-83.7h-0.6l0.6-0.1l35-106.5l-61.5,0.7
		L487.5,466z"/>
	<polygon class="st3" points="281.5,534.5 279.5,496.9 363.4,492.4 363.3,490.4 361.2,451.3 277.2,455.9 275.7,427.8 365.6,422.9 
		363.3,381.3 213.4,389.5 218.9,490.4 223.7,578.8 381.6,570.2 379.4,529.2 	"/>
	<polygon class="st3" points="650.1,534.2 647.8,496.7 731.7,491.4 731.6,490.4 729.1,450.4 645.2,455.7 643.4,427.5 733.2,421.9 
		730.6,380.4 580.8,389.8 587.1,490.4 592.6,579 750.5,569.1 747.9,528.1 	"/>
	<path class="st3" d="M895.4,496.7c5-1.9,9.6-3.7,14.1-6.3h-1.9l1.8-0.1c3.6-2,7.1-4.6,10.4-8.3c13.6-14.1,14.2-31,14.1-38.3
		c-0.2-18.3-8-44-33.3-54.5c-11.6-4.7-28.8-5.6-46.8-5.4l-94.5,0.9l1,105.6l1.9,0.1h-1.9l0.8,84.3l60.2-0.6l-0.7-66.9l17.7-0.2
		l37.5,66.5l66.6-0.7L895.4,496.7z M845.3,468l-25,0.2l-0.4-44.3l24.7-0.2c10.5-0.1,29.3,0.2,29.5,22
		C874.3,467.2,855.2,467.9,845.3,468z"/>
</g>
<g>
	<g>
		<path class="st4" d="M177.3,186.5c-18.2-3.3-28.9-6-28.9-16.1c0-10.7,12.5-13.7,23.8-13.7c10.7,0,26.8,1.8,39,7.8
			c9.2,4.8,12.8,9.5,16.1,13.7l41.7-34.9c-7.5-7.8-15.2-16.1-31-23.8c-17.3-8.6-39.3-13.4-63.5-13.4c-37.8,0-73.3,12.2-87,43.2
			c-3.9,8.3-6,17.9-6,27.1c0,22.4,9.6,36.5,21.6,45.6h158.3C245.9,198.5,211.7,192.4,177.3,186.5z"/>
		<polygon class="st4" points="270.6,115.6 278.4,222 345.3,222 337.2,110.8 		"/>
		<path class="st4" d="M423.4,220.8c-0.7-9.5-2.5-34.5,12.7-50.8c6.1-6.7,16.6-13.5,32.4-14.6c14-1,25,3,31.7,8.8
			c7,6.1,9,13.1,11,19.5l58.2-21c-4.3-9.5-9.2-20.5-22.6-31.8c-22.3-19-55.5-27.6-87-25.4c-70.5,5.1-105.5,58.5-104,116.4h67.6
			C423.5,221.6,423.4,221.2,423.4,220.8z"/>
		<path class="st4" d="M797,108.7h-62.3v82.5c0.4,14.9,0.6,22.2,1.2,30.8h61L797,108.7L797,108.7z"/>
		<path class="st4" d="M711.8,188.2l-47.4-79.5h-70.6V222h61.7c-0.3-10.4-0.7-16.7-1.8-31.1c6.9,14.4,11.2,23.1,15.4,31.1h60
			C723.9,210.9,719.8,203.2,711.8,188.2z"/>
		<polygon class="st4" points="474.7,207.2 475.8,222 572.5,222 571,200.2 		"/>
	</g>
</g>
<g>
	<g>
		<g>
			<polygon class="st5" points="115.2,461.2 115.2,427.1 205.4,427.1 205.4,385.2 55.3,385.2 55.3,490.4 199.5,490.4 199.5,461.2 
							"/>
			<polygon class="st5" points="277.2,455.9 275.7,427.8 365.6,422.9 363.3,381.3 213.4,389.5 218.9,490.4 363.3,490.4 361.2,451.3 
							"/>
			<path class="st5" d="M466.5,460.1l-23.2-75l-61.2,0.6l36.1,104.7h56.5C472.9,482,470.8,474.3,466.5,460.1z"/>
			<path class="st5" d="M510.7,384.5L487.5,466c-3,11.1-4.6,17.2-6,24.3h55.7l35-106.5L510.7,384.5z"/>
			<polygon class="st5" points="645.2,455.7 643.4,427.5 733.2,421.9 730.6,380.4 580.8,389.8 587.1,490.4 731.6,490.4 729.1,450.4 
							"/>
			<path class="st5" d="M919.8,482c13.6-14.1,14.2-31,14.1-38.3c-0.2-18.3-8-44-33.3-54.5c-11.6-4.7-28.8-5.6-46.8-5.4l-94.5,0.9
				l1,105.6h149.1C913,488.3,916.5,485.7,919.8,482z M845.3,468l-25,0.2l-0.4-44.3l24.7-0.2c10.5-0.1,29.3,0.2,29.5,22
				C874.3,467.2,855.2,467.9,845.3,468z"/>
		</g>
	</g>
</g>
</svg>
